<svg xmlns="http://www.w3.org/2000/svg" viewBox="0 0 24 24" aria-hidden="true">
  <path fill="#EA4335" d="M12 10.2v3.9h5.4c-.2 1.3-1.6 3.9-5.4 3.9-3.3 0-6-2.7-6-6s2.7-6 6-6c1.9 0 3.2.8 3.9 1.5l2.7-2.6C16.9 3.3 14.7 2.4 12 2.4A9.6 9.6 0 0 0 2.4 12 9.6 9.6 0 0 0 12 21.6c5.5 0 9.1-3.8 9.1-9.2 0-.6-.1-1.1-.2-1.6H12Z"/>
  <path fill="#34A853" d="M2.4 12c0 1.5.4 2.9 1.2 4.2l3.4-2.6c-.2-.5-.3-1-.3-1.6s.1-1.1.3-1.6L3.6 7.8A9.4 9.4 0 0 0 2.4 12Z"/>
  <path fill="#4A90E2" d="M12 21.6c2.6 0 4.8-.9 6.4-2.5l-3-2.3c-.8.6-1.9 1.1-3.4 1.1-2.5 0-4.7-1.7-5.4-4l-3.5 2.7a9.6 9.6 0 0 0 8.9 5Z"/>
  <path fill="#FBBC05" d="M6.6 13.9c-.2-.5-.3-1-.3-1.6s.1-1.1.3-1.6L3.1 8A9.6 9.6 0 0 0 2.4 12c0 1.5.4 2.9 1.2 4.2l3-2.3Z"/>
</svg>
